<svg xmlns="http://www.w3.org/2000/svg" viewBox="0 0 64 64" role="img" aria-label="SIGV">
  <rect width="64" height="64" rx="14" fill="#121c5a"/>
  <path d="M18 46V18h9c6.5 0 10.5 3.3 10.5 8.6 0 5.2-4 8.5-10.5 8.5h-4.2V46H18zm4.8-15.1h3.8c3.8 0 6-1.4 6-4.4 0-3-2.2-4.4-6-4.4h-3.8v8.8zM49 24.3c-1.1-1.8-2.8-2.6-5.1-2.6-2.1 0-3.6.8-3.6 2.3 0 1.8 2 2.4 5.3 3.2 4.8 1.1 8.4 2.7 8.4 7.8 0 5.4-4.4 8.1-10 8.1-4.5 0-8-1.6-10.3-5.1l3.8-2.6c1.5 2.1 3.4 3.3 6.5 3.3 2.7 0 4.7-.9 4.7-3 0-2.1-1.7-2.7-5.5-3.7-4.7-1.1-8.2-2.8-8.2-7.4 0-4.8 4-7.4 9-7.4 4 0 7.1 1.3 9 4.3L49 24.3z" fill="#ffffff"/>
</svg>
